<svg width="43" height="43" viewBox="0 0 43 43" fill="none" xmlns="http://www.w3.org/2000/svg">
<mask id="mask0_59_180" style="mask-type:alpha" maskUnits="userSpaceOnUse" x="0" y="0" width="43" height="43">
<rect width="43" height="43" fill="#D9D9D9"/>
</mask>
<g mask="url(#mask0_59_180)">
<path d="M5.37484 37.6244C4.38942 37.6244 3.54584 37.2735 2.84411 36.5717C2.14237 35.87 1.7915 35.0264 1.7915 34.041V12.541C1.7915 11.5556 2.14237 10.712 2.84411 10.0103C3.54584 9.30855 4.38942 8.95768 5.37484 8.95768H11.0186L13.2582 6.53893C13.5866 6.1806 13.9823 5.89692 14.4451 5.68789C14.908 5.47886 15.3932 5.37435 15.9009 5.37435H23.2915C23.7991 5.37435 24.2247 5.54605 24.5681 5.88945C24.9115 6.23286 25.0832 6.65838 25.0832 7.16602C25.0832 7.67365 24.9115 8.09918 24.5681 8.44258C24.2247 8.78598 23.7991 8.95768 23.2915 8.95768H15.9009L12.6311 12.541H5.37484V34.041H34.0415V19.7077C34.0415 19.2 34.2132 18.7745 34.5566 18.4311C34.9 18.0877 35.3255 17.916 35.8332 17.916C36.3408 17.916 36.7663 18.0877 37.1097 18.4311C37.4531 18.7745 37.6248 19.2 37.6248 19.7077V34.041C37.6248 35.0264 37.274 35.87 36.5722 36.5717C35.8705 37.2735 35.0269 37.6244 34.0415 37.6244H5.37484ZM34.0415 8.95768H32.2498C31.7422 8.95768 31.3167 8.78598 30.9733 8.44258C30.6299 8.09918 30.4582 7.67365 30.4582 7.16602C30.4582 6.65838 30.6299 6.23286 30.9733 5.88945C31.3167 5.54605 31.7422 5.37435 32.2498 5.37435H34.0415V3.58268C34.0415 3.07504 34.2132 2.64952 34.5566 2.30612C34.9 1.96272 35.3255 1.79102 35.8332 1.79102C36.3408 1.79102 36.7663 1.96272 37.1097 2.30612C37.4531 2.64952 37.6248 3.07504 37.6248 3.58268V5.37435H39.4165C39.9241 5.37435 40.3497 5.54605 40.6931 5.88945C41.0365 6.23286 41.2082 6.65838 41.2082 7.16602C41.2082 7.67365 41.0365 8.09918 40.6931 8.44258C40.3497 8.78598 39.9241 8.95768 39.4165 8.95768H37.6248V10.7493C37.6248 11.257 37.4531 11.6825 37.1097 12.0259C36.7663 12.3693 36.3408 12.541 35.8332 12.541C35.3255 12.541 34.9 12.3693 34.5566 12.0259C34.2132 11.6825 34.0415 11.257 34.0415 10.7493V8.95768ZM19.7082 31.3535C21.9478 31.3535 23.8514 30.5697 25.4191 29.002C26.9868 27.4342 27.7707 25.5306 27.7707 23.291C27.7707 21.0514 26.9868 19.1478 25.4191 17.5801C23.8514 16.0124 21.9478 15.2285 19.7082 15.2285C17.4686 15.2285 15.5649 16.0124 13.9972 17.5801C12.4295 19.1478 11.6457 21.0514 11.6457 23.291C11.6457 25.5306 12.4295 27.4342 13.9972 29.002C15.5649 30.5697 17.4686 31.3535 19.7082 31.3535ZM19.7082 27.7702C18.454 27.7702 17.3939 27.3372 16.528 26.4712C15.662 25.6053 15.229 24.5452 15.229 23.291C15.229 22.0368 15.662 20.9768 16.528 20.1108C17.3939 19.2448 18.454 18.8118 19.7082 18.8118C20.9623 18.8118 22.0224 19.2448 22.8884 20.1108C23.7544 20.9768 24.1873 22.0368 24.1873 23.291C24.1873 24.5452 23.7544 25.6053 22.8884 26.4712C22.0224 27.3372 20.9623 27.7702 19.7082 27.7702Z" fill="white"/>
</g>
</svg>
